<?xml version="1.0" encoding="iso-8859-1"?>
<!-- Generator: Adobe Illustrator 19.0.0, SVG Export Plug-In . SVG Version: 6.00 Build 0)  -->
<svg version="1.1" id="Capa_1" xmlns="http://www.w3.org/2000/svg" xmlns:xlink="http://www.w3.org/1999/xlink" x="0px" y="0px"
	 viewBox="0 0 512 512" style="enable-background:new 0 0 512 512;" xml:space="preserve">
<circle style="fill:#FF916E;" cx="256" cy="256" r="256"/>
<path style="fill:#353F49;" d="M75.1,437.1c3.1,3.1,6.3,6.1,9.5,9v-9H75.1z"/>
<path style="fill:#F2F2F2;" d="M84.6,437.1v9c31.8,28.7,70.9,49.5,114.2,59.4v-68.4H84.6z"/>
<path style="fill:#353F49;" d="M198.9,437.1v68.4c18.4,4.2,37.5,6.4,57.1,6.4s38.8-2.2,57.1-6.4v-68.4H198.9z"/>
<path style="fill:#F2F2F2;" d="M313.1,437.1v68.4c43.3-9.9,82.4-30.7,114.2-59.4v-9H313.1z"/>
<path style="fill:#353F49;" d="M427.3,446.2c3.3-2.9,6.4-5.9,9.5-9h-9.5V446.2z"/>
<path style="fill:#F2F2F2;" d="M84.6,361.2h-62c12.8,28.5,30.7,54.1,52.6,75.9h9.5v-75.9H84.6z"/>
<rect x="84.6" y="361.2" style="fill:#353F49;" width="114.2" height="75.9"/>
<rect x="198.9" y="361.2" style="fill:#F2F2F2;" width="114.3" height="75.9"/>
<rect x="313.1" y="361.2" style="fill:#353F49;" width="114.2" height="75.9"/>
<path style="fill:#F2F2F2;" d="M427.3,361.2v75.9h9.5c21.8-21.8,39.7-47.5,52.6-75.9H427.3z"/>
<g>
	<path style="fill:#353F49;" d="M300.2,316.8h-88.4c0,9.3-7.5,16.8-16.8,16.8h122C307.7,333.7,300.2,326.2,300.2,316.8z"/>
	<rect x="199.3" y="345.9" style="fill:#353F49;" width="113.4" height="15.3"/>
</g>
<g>
	<path style="fill:#474F59;" d="M304.1,313.8c0,0.8-0.3,1.6-0.9,2.2s-1.4,0.9-2.2,0.9h-90c-0.8,0-1.6-0.3-2.2-0.9
		c-0.6-0.6-0.9-1.4-0.9-2.2l0,0c0-0.8,0.3-1.6,0.9-2.2c0.6-0.6,1.4-0.9,2.2-0.9h90c0.8,0,1.6,0.3,2.2,0.9
		C303.8,312.2,304.1,313,304.1,313.8L304.1,313.8z"/>
	<path style="fill:#474F59;" d="M195,333.7v8c0,1.1,0.4,2.2,1.3,3c0.8,0.8,1.9,1.3,3,1.3h113.5c1.1,0,2.2-0.4,3-1.3
		c0.8-0.8,1.3-1.9,1.3-3v-8H195z"/>
	<path style="fill:#474F59;" d="M317,353.9c0,1.1-0.4,2.2-1.3,3c-0.8,0.8-1.9,1.2-3,1.2H199.3c-1.1,0-2.2-0.4-3-1.2
		c-0.8-0.8-1.3-1.9-1.3-3v-0.6c0-1.1,0.4-2.2,1.3-3c0.8-0.8,1.9-1.2,3-1.2h113.5c1.1,0,2.2,0.4,3,1.2c0.8,0.8,1.3,1.9,1.3,3v0.6H317
		z"/>
	<path style="fill:#474F59;" d="M298.1,192.1c0,0.9-0.4,1.9-1.1,2.6c-0.7,0.7-1.7,1.1-2.6,1.1h-76.8c-1,0-1.9-0.4-2.6-1.1
		c-0.7-0.7-1.1-1.7-1.1-2.6v-0.5c0-0.9,0.4-1.9,1.1-2.6c0.7-0.7,1.7-1.1,2.6-1.1h76.8c0.9,0,1.9,0.3,2.6,1.1
		c0.7,0.7,1.1,1.7,1.1,2.6V192.1z"/>
</g>
<path style="fill:#353F49;" d="M275.7,166.7v-1.6c0-12.4,10-22.4,22.4-22.4h-22.4h-39.4h-22.4c12.4,0,22.4,10,22.4,22.4v1.6
	c0,9.2-5.2,17.2-12.8,21.2h12.8l0,0h39.4l0,0h12.8C280.9,183.9,275.7,175.9,275.7,166.7z"/>
<path style="fill:#474F59;" d="M298.1,142.6c-7-16.3-23.2-27.7-42.1-27.7s-35,11.4-42.1,27.7H298.1z"/>
<g>
	<path style="fill:#353F49;" d="M300.2,310.8c-15.4-19.4-24.5-43.9-24.5-70.5v-14.1c0-11.9,4.9-22.6,12.8-30.3h-12.8h-39.4h-12.8
		c7.9,7.7,12.8,18.4,12.8,30.3v14.1c0,26.6-9.2,51.2-24.5,70.5h24.5l0,0h39.4l0,0H300.2z"/>
	<path style="fill:#353F49;" d="M271.1,113.6c0,0.8-0.3,1.6-0.9,2.2s-1.4,0.9-2.2,0.9h-24c-0.8,0-1.6-0.3-2.2-0.9
		c-0.6-0.6-0.9-1.4-0.9-2.2l0,0c0-0.8,0.3-1.6,0.9-2.2c0.6-0.6,1.4-0.9,2.2-0.9h24c0.8,0,1.6,0.3,2.2,0.9
		C270.8,112,271.1,112.8,271.1,113.6L271.1,113.6z"/>
	<polygon style="fill:#353F49;" points="244,110.5 256,89.7 268,110.5 	"/>
	<polygon style="fill:#353F49;" points="244,73.2 256,94 268,73.2 	"/>
	<polygon style="fill:#353F49;" points="274.7,103.9 253.8,91.8 274.7,79.8 	"/>
	<polygon style="fill:#353F49;" points="237.3,103.9 258.2,91.8 237.3,79.8 	"/>
</g>
<g>
	<rect x="322.3" y="162.9" style="fill:#FFFFFF;" width="17.3" height="4.7"/>
	
		<rect x="319.785" y="143.498" transform="matrix(-0.9658 0.2592 -0.2592 -0.9658 683.448 201.5785)" style="fill:#FFFFFF;" width="17.3" height="4.7"/>
	
		<rect x="312.271" y="125.407" transform="matrix(-0.866 0.5 -0.5 -0.866 662.7238 77.9322)" style="fill:#FFFFFF;" width="17.3" height="4.7"/>
	
		<rect x="300.371" y="109.883" transform="matrix(-0.7071 0.7071 -0.7071 -0.7071 606.8927 -26.9177)" style="fill:#FFFFFF;" width="17.3" height="4.7"/>
	
		<rect x="326.156" y="176.04" transform="matrix(-0.259 0.9659 -0.9659 -0.259 591.9752 -84.7725)" style="fill:#FFFFFF;" width="4.7" height="17.3"/>
	
		<rect x="318.554" y="194.095" transform="matrix(-0.5002 0.8659 -0.8659 -0.5002 656.9805 26.2853)" style="fill:#FFFFFF;" width="4.7" height="17.3"/>
	
		<rect x="306.641" y="209.725" transform="matrix(-0.7074 0.7068 -0.7068 -0.7074 681.9222 154.4579)" style="fill:#FFFFFF;" width="4.7" height="17.3"/>
	<rect x="172.4" y="162.9" style="fill:#FFFFFF;" width="17.3" height="4.7"/>
	
		<rect x="181.2" y="137.254" transform="matrix(-0.259 0.9659 -0.9659 -0.259 372.0142 6.4056)" style="fill:#FFFFFF;" width="4.7" height="17.3"/>
	
		<rect x="188.753" y="119.186" transform="matrix(-0.5 0.866 -0.866 -0.5 397.3649 26.256)" style="fill:#FFFFFF;" width="4.7" height="17.3"/>
	
		<rect x="200.586" y="103.628" transform="matrix(-0.7072 0.707 -0.707 -0.7072 425.8347 48.2039)" style="fill:#FFFFFF;" width="4.7" height="17.3"/>
	
		<rect x="174.986" y="182.288" transform="matrix(-0.966 0.2586 -0.2586 -0.966 408.7732 315.508)" style="fill:#FFFFFF;" width="17.3" height="4.7"/>
	
		<rect x="182.393" y="200.43" transform="matrix(-0.8658 0.5005 -0.5005 -0.8658 457.9258 282.7261)" style="fill:#FFFFFF;" width="17.301" height="4.7"/>
	
		<rect x="194.341" y="215.868" transform="matrix(-0.7071 0.7071 -0.7071 -0.7071 500.831 228.9848)" style="fill:#FFFFFF;" width="17.3" height="4.7"/>
</g>
<g>
</g>
<g>
</g>
<g>
</g>
<g>
</g>
<g>
</g>
<g>
</g>
<g>
</g>
<g>
</g>
<g>
</g>
<g>
</g>
<g>
</g>
<g>
</g>
<g>
</g>
<g>
</g>
<g>
</g>
</svg>
